<svg width="251" height="114" viewBox="0 0 251 114" fill="none" xmlns="http://www.w3.org/2000/svg">
<path d="M179.01 34.3699H153.53C151.2 29.6499 146.35 26.3999 140.72 26.3999H72.0498C64.1598 26.3999 57.7598 32.7999 57.7598 40.6899V45.8099H40.8798C32.9898 45.8099 26.5898 52.2099 26.5898 60.0999V74.7299C26.5898 82.6199 32.9898 89.0199 40.8798 89.0199H109.55C116.47 89.0199 122.23 84.1099 123.56 77.5799H179.01C186.9 77.5799 193.3 71.1799 193.3 63.2899V48.6599C193.3 40.7699 186.9 34.3699 179.01 34.3699Z" fill="#8B7D6B"/>
<path d="M85.7281 39.8899H68.4381C67.8251 39.8899 67.3281 40.3869 67.3281 40.9999C67.3281 41.6129 67.8251 42.1099 68.4381 42.1099H85.7281C86.3411 42.1099 86.8381 41.6129 86.8381 40.9999C86.8381 40.3869 86.3411 39.8899 85.7281 39.8899Z" fill="#F4F4F4"/>
<path d="M116.041 39.8899H98.7506C98.1376 39.8899 97.6406 40.3869 97.6406 40.9999C97.6406 41.6129 98.1376 42.1099 98.7506 42.1099H116.041C116.654 42.1099 117.151 41.6129 117.151 40.9999C117.151 40.3869 116.654 39.8899 116.041 39.8899Z" fill="#F4F4F4"/>
<path d="M98.7789 50.6201H81.4889C80.8759 50.6201 80.3789 51.1171 80.3789 51.7301C80.3789 52.3432 80.8759 52.8401 81.4889 52.8401H98.7789C99.392 52.8401 99.8889 52.3432 99.8889 51.7301C99.8889 51.1171 99.392 50.6201 98.7789 50.6201Z" fill="#F4F4F4"/>
<path d="M80.7789 61.6001H63.4889C62.8759 61.6001 62.3789 62.0971 62.3789 62.7101C62.3789 63.3231 62.8759 63.8201 63.4889 63.8201H80.7789C81.392 63.8201 81.8889 63.3231 81.8889 62.7101C81.8889 62.0971 81.392 61.6001 80.7789 61.6001Z" fill="#F4F4F4"/>
<path d="M111.08 61.6001H93.7897C93.1766 61.6001 92.6797 62.0971 92.6797 62.7101C92.6797 63.3231 93.1766 63.8201 93.7897 63.8201H111.08C111.693 63.8201 112.19 63.3231 112.19 62.7101C112.19 62.0971 111.693 61.6001 111.08 61.6001Z" fill="#F4F4F4"/>
<path fill-rule="evenodd" clip-rule="evenodd" d="M203.92 44.2999L209.11 23.1899L205.15 23.2799L192.74 37.6899C191.61 39.0499 190.08 39.9799 188.22 40.5499L179.43 43.0599L196.43 45.5199L203.91 44.2999H203.92Z" fill="#C6E2EC"/>
<path fill-rule="evenodd" clip-rule="evenodd" d="M203.918 44.2999L209.108 23.1899L206.478 23.2499L195.748 39.7999C193.698 42.3199 190.098 43.5799 187.258 44.1899L203.038 45.9499L203.918 44.2899V44.2999Z" fill="#3BC2CA"/>
<path fill-rule="evenodd" clip-rule="evenodd" d="M127.11 57.18L180.36 58.34C202.54 54.85 205.11 50.08 204.2 44.2C180.81 42.51 158.7 42.01 135.16 42.7C132.36 42.78 125.62 43.64 122.37 46.35C121.84 46.8 121.41 47.29 121.1 47.85C117.19 49.91 115.11 51.68 118.64 54.05C121.12 55.72 123.91 56.9 127.1 57.19L127.11 57.18Z" fill="#E6F1F2"/>
<path fill-rule="evenodd" clip-rule="evenodd" d="M121.109 47.8499L124.469 49.1698C125.679 48.4998 126.489 47.7298 126.689 46.8098L123.069 45.8398C122.329 46.2798 121.449 47.1499 121.109 47.8499Z" fill="#106986"/>
<path fill-rule="evenodd" clip-rule="evenodd" d="M165.041 55.1599H185.531C187.611 54.4699 187.821 54.3198 189.501 53.5798L166.731 52.8499L165.031 55.1599H165.041Z" fill="#3BC2CA"/>
<path fill-rule="evenodd" clip-rule="evenodd" d="M148.731 54.0399L160.961 54.6799C161.891 54.7299 162.631 55.4699 162.621 56.3899L162.571 59.7099C162.551 60.6399 161.781 61.3399 160.861 61.3699L148.621 61.7299C147.691 61.7599 146.941 60.9399 146.961 60.0199L147.031 55.6999C147.041 54.7699 147.821 53.9899 148.741 54.0399H148.731Z" fill="#3BC2CA"/>
<path d="M173.959 48.4615L174.589 48.4577C174.999 48.4552 175.331 48.7832 175.333 49.1932L175.342 50.6731C175.345 51.0831 175.017 51.4151 174.607 51.4176L173.977 51.4215C173.567 51.424 173.235 51.096 173.232 50.686L173.223 49.206C173.221 48.796 173.549 48.464 173.959 48.4615Z" fill="#106986"/>
<path d="M177.349 48.4608L177.979 48.457C178.389 48.4545 178.721 48.7824 178.724 49.1924L178.733 50.6624C178.735 51.0724 178.407 51.4044 177.997 51.4069L177.367 51.4108C176.958 51.4133 176.625 51.0853 176.623 50.6753L176.614 49.1953C176.611 48.7853 176.939 48.4533 177.349 48.4508L177.349 48.4608Z" fill="#106986"/>
<path d="M180.738 48.4601L181.378 48.4562C181.788 48.4537 182.12 48.7817 182.122 49.1917L182.131 50.6717C182.134 51.0817 181.806 51.4137 181.396 51.4162L180.766 51.42C180.356 51.4225 180.024 51.0946 180.021 50.6846L180.012 49.2046C180.01 48.7946 180.338 48.4626 180.748 48.4601L180.738 48.4601Z" fill="#106986"/>
<path d="M184.119 48.4496L184.749 48.4457C185.159 48.4432 185.491 48.7712 185.493 49.1812L185.502 50.6612C185.505 51.0712 185.177 51.4032 184.767 51.4057L184.137 51.4095C183.727 51.412 183.395 51.0841 183.392 50.6741L183.383 49.1941C183.381 48.7841 183.709 48.4521 184.119 48.4496Z" fill="#106986"/>
<path d="M187.498 48.4689L188.128 48.465C188.538 48.4625 188.87 48.7905 188.872 49.2005L188.881 50.6805C188.884 51.0905 188.556 51.4225 188.146 51.425L187.516 51.4288C187.106 51.4313 186.774 51.1033 186.771 50.6933L186.762 49.2134C186.76 48.8034 187.088 48.4714 187.498 48.4689Z" fill="#106986"/>
<path d="M190.9 48.4581L191.53 48.4543C191.94 48.4518 192.272 48.7797 192.275 49.1897L192.284 50.6697C192.286 51.0797 191.958 51.4117 191.548 51.4142L190.918 51.4181C190.508 51.4206 190.176 51.0926 190.174 50.6826L190.165 49.2026C190.162 48.7926 190.49 48.4606 190.9 48.4581Z" fill="#106986"/>
<path d="M194.277 48.4576L194.907 48.4537C195.317 48.4512 195.649 48.7792 195.652 49.1892L195.661 50.6692C195.663 51.0792 195.335 51.4112 194.925 51.4137L194.285 51.4176C193.875 51.4201 193.543 51.0921 193.541 50.6821L193.532 49.2021C193.529 48.7921 193.857 48.4601 194.267 48.4576L194.277 48.4576Z" fill="#106986"/>
<path d="M132.767 48.463L133.397 48.4592C133.807 48.4567 134.139 48.7846 134.142 49.1946L134.151 50.6746C134.153 51.0846 133.825 51.4166 133.415 51.4191L132.785 51.4229C132.375 51.4254 132.043 51.0975 132.041 50.6875L132.032 49.2075C132.029 48.7975 132.357 48.4655 132.767 48.463Z" fill="#106986"/>
<path d="M136.146 48.4625L136.776 48.4587C137.186 48.4562 137.518 48.7841 137.521 49.1941L137.53 50.6741C137.532 51.0841 137.204 51.4161 136.794 51.4186L136.164 51.4225C135.754 51.425 135.422 51.097 135.42 50.687L135.411 49.207C135.408 48.797 135.736 48.465 136.146 48.4625Z" fill="#106986"/>
<path d="M139.537 48.4618L140.167 48.4579C140.577 48.4554 140.909 48.7834 140.911 49.1934L140.92 50.6734C140.923 51.0834 140.595 51.4154 140.185 51.4179L139.555 51.4217C139.145 51.4242 138.813 51.0963 138.81 50.6863L138.801 49.2063C138.799 48.7963 139.127 48.4643 139.537 48.4618Z" fill="#106986"/>
<path d="M142.927 48.4611L143.557 48.4572C143.967 48.4547 144.299 48.7827 144.302 49.1927L144.311 50.6726C144.314 51.0826 143.986 51.4146 143.576 51.4171L142.946 51.421C142.536 51.4235 142.204 51.0955 142.201 50.6855L142.192 49.2056C142.19 48.7956 142.517 48.4636 142.927 48.4611Z" fill="#106986"/>
<path d="M146.306 48.4603L146.936 48.4565C147.346 48.454 147.678 48.7819 147.681 49.1919L147.69 50.6719C147.692 51.0819 147.364 51.4139 146.954 51.4164L146.324 51.4203C145.914 51.4228 145.582 51.0948 145.58 50.6848L145.571 49.2048C145.568 48.7948 145.896 48.4628 146.306 48.4603Z" fill="#106986"/>
<path d="M149.697 48.4596L150.327 48.4557C150.737 48.4532 151.069 48.7812 151.071 49.1912L151.081 50.6712C151.083 51.0812 150.755 51.4132 150.345 51.4157L149.715 51.4195C149.305 51.422 148.973 51.0941 148.971 50.6841L148.962 49.2041C148.959 48.7941 149.287 48.4621 149.697 48.4596Z" fill="#106986"/>
<path d="M153.076 48.4591L153.706 48.4553C154.116 48.4527 154.448 48.7807 154.45 49.1907L154.459 50.6707C154.462 51.0807 154.134 51.4127 153.724 51.4152L153.094 51.419C152.684 51.4215 152.352 51.0936 152.349 50.6836L152.34 49.2036C152.338 48.7936 152.666 48.4616 153.076 48.4591Z" fill="#106986"/>
<path d="M149.697 48.4596L150.327 48.4557C150.737 48.4532 151.069 48.7812 151.071 49.1912L151.081 50.6712C151.083 51.0812 150.755 51.4132 150.345 51.4157L149.715 51.4195C149.305 51.422 148.973 51.0941 148.971 50.6841L148.962 49.2041C148.959 48.7941 149.287 48.4621 149.697 48.4596Z" fill="#106986"/>
<path d="M153.076 48.4591L153.706 48.4553C154.116 48.4527 154.448 48.7807 154.45 49.1907L154.459 50.6707C154.462 51.0807 154.134 51.4127 153.724 51.4152L153.094 51.419C152.684 51.4215 152.352 51.0936 152.349 50.6836L152.34 49.2036C152.338 48.7936 152.666 48.4616 153.076 48.4591Z" fill="#106986"/>
<path d="M156.459 48.4684L157.089 48.4645C157.499 48.462 157.831 48.79 157.833 49.2L157.842 50.68C157.845 51.09 157.517 51.422 157.107 51.4245L156.477 51.4283C156.067 51.4308 155.735 51.1029 155.732 50.6929L155.723 49.2129C155.721 48.8029 156.049 48.4709 156.459 48.4684Z" fill="#106986"/>
<path d="M159.846 48.4576L160.475 48.4538C160.885 48.4513 161.217 48.7793 161.22 49.1892L161.229 50.6692C161.232 51.0792 160.904 51.4112 160.494 51.4137L159.864 51.4176C159.454 51.4201 159.122 51.0921 159.119 50.6821L159.11 49.2021C159.107 48.7921 159.436 48.4601 159.846 48.4576Z" fill="#106986"/>
<path d="M163.236 48.4569L163.866 48.4531C164.276 48.4506 164.608 48.7785 164.611 49.1885L164.62 50.6685C164.622 51.0785 164.294 51.4105 163.884 51.413L163.254 51.4168C162.844 51.4193 162.512 51.0914 162.51 50.6814L162.501 49.2014C162.498 48.7914 162.826 48.4594 163.236 48.4569Z" fill="#106986"/>
<path d="M166.627 48.4562L167.257 48.4523C167.667 48.4498 167.999 48.7778 168.001 49.1878L168.01 50.6678C168.013 51.0778 167.685 51.4098 167.275 51.4123L166.645 51.4161C166.235 51.4186 165.903 51.0906 165.9 50.6807L165.891 49.2007C165.889 48.7907 166.217 48.4587 166.627 48.4562Z" fill="#106986"/>
<path d="M170.006 48.4557L170.636 48.4518C171.046 48.4493 171.378 48.7773 171.38 49.1873L171.389 50.6673C171.392 51.0773 171.064 51.4093 170.654 51.4118L170.024 51.4156C169.614 51.4181 169.282 51.0902 169.279 50.6802L169.27 49.2002C169.268 48.7902 169.596 48.4582 170.006 48.4557Z" fill="#106986"/>
<path fill-rule="evenodd" clip-rule="evenodd" d="M136.508 55.0899L140.778 53.8099L160.138 51.0899C162.378 51.1999 171.508 44.0099 175.428 37.1799L177.858 37.2199L172.068 50.0999C170.858 52.8099 169.148 54.4999 166.928 55.1899L152.048 55.2699L136.528 55.0999L136.508 55.0899Z" fill="#C6E2EC"/>
</svg>
