<svg width="138" height="132" viewBox="0 0 138 132" fill="none" xmlns="http://www.w3.org/2000/svg">
<path d="M70.4216 119.79C99.1791 119.79 122.492 96.4773 122.492 67.7198C122.492 38.9624 99.1791 15.6499 70.4216 15.6499C41.6642 15.6499 18.3516 38.9624 18.3516 67.7198C18.3516 96.4773 41.6642 119.79 70.4216 119.79Z" fill="#E45B5B"/>
<path d="M70.4207 107.61C92.8048 107.61 110.951 89.4642 110.951 67.0801C110.951 44.696 92.8048 26.55 70.4207 26.55C48.0366 26.55 29.8906 44.696 29.8906 67.0801C29.8906 89.4642 48.0366 107.61 70.4207 107.61Z" fill="#EEB06B"/>
<path d="M41.3912 42C41.3912 42 35.8008 59.5622 47.0329 79.8262C58.265 100.09 63.069 101.869 63.069 101.869L65.4795 96.3965L70.5229 98.5511C70.5229 98.5511 73.2753 91.1979 65.924 72.5756C55.6151 46.4803 41.3912 42 41.3912 42Z" fill="#FFDB00"/>
<path d="M40.2945 47.797L63.6476 100.535L64.5195 98.551L40.7219 44.8215C40.568 45.6595 40.4141 46.6513 40.2773 47.797H40.2945Z" fill="#E45B5B"/>
<path d="M43.4102 42.9065L67.4814 97.2516L69.6526 98.1751L45.8036 44.36C44.8805 43.7273 44.0769 43.2656 43.4102 42.9065Z" fill="#E45B5B"/>
<path d="M84.1311 58.1975L85.6719 58.6606L75.2157 93.4467L73.6749 92.9836L84.1311 58.1975Z" fill="#12465B"/>
<path d="M95.0938 60.8313L75.122 54.8289C79.4072 48.7183 84.7134 45.6552 89.2461 44.1855C92.0307 48.4089 94.7843 53.6532 95.0938 60.8313Z" fill="white"/>
<path d="M61.5105 51.3944C61.6807 51.2242 61.8663 51.054 62.0365 50.8839C68.8742 44.0925 79.2237 41.1687 89.2482 44.1853C84.7155 45.655 79.4248 48.7181 75.1241 54.8287L95.0959 60.8311C94.7865 53.653 92.0328 48.4086 89.2482 44.1853C99.2728 47.202 106.296 55.3392 108.261 64.7759L108.57 66.1837L61 51.9049L61.526 51.3944H61.5105Z" fill="#E45B5B"/>
</svg>
