<svg width="231" height="159" viewBox="0 0 231 159" fill="none" xmlns="http://www.w3.org/2000/svg">
<path d="M152.241 29.8599H89.1406V133.8H152.241V29.8599Z" fill="#3FC3CA"/>
<path d="M108.99 40.8499H98.5703V52.6798H108.99V40.8499Z" fill="#F4F4F4"/>
<path d="M125.889 40.8499H115.469V52.6798H125.889V40.8499Z" fill="#F4F4F4"/>
<path d="M142.799 40.8499H132.379V52.6798H142.799V40.8499Z" fill="#F4F4F4"/>
<path d="M108.99 57.7498H98.5703V69.5797H108.99V57.7498Z" fill="#F4F4F4"/>
<path d="M125.889 57.7498H115.469V69.5797H125.889V57.7498Z" fill="#F4F4F4"/>
<path d="M142.799 57.7498H132.379V69.5797H142.799V57.7498Z" fill="#F4F4F4"/>
<path d="M108.99 74.6499H98.5703V86.4799H108.99V74.6499Z" fill="#F4F4F4"/>
<path d="M125.889 74.6499H115.469V86.4799H125.889V74.6499Z" fill="#F4F4F4"/>
<path d="M142.799 74.6499H132.379V86.4799H142.799V74.6499Z" fill="#F4F4F4"/>
<path d="M108.99 91.5498H98.5703V103.38H108.99V91.5498Z" fill="#F4F4F4"/>
<path d="M125.889 91.5498H115.469V103.38H125.889V91.5498Z" fill="#F4F4F4"/>
<path d="M142.799 91.5498H132.379V103.38H142.799V91.5498Z" fill="#F4F4F4"/>
<path d="M131.53 109.3H109.84V133.81H131.53V109.3Z" fill="#12465B"/>
<path d="M89.1486 51.8301H39.5586V133.52H89.1486V51.8301Z" fill="#1F858F"/>
<path d="M55.3381 58.5901H46.3281V69.0101H55.3381V58.5901Z" fill="#F4F4F4"/>
<path d="M68.8577 58.5901H59.8477V69.0101H68.8577V58.5901Z" fill="#F4F4F4"/>
<path d="M82.3772 58.5901H73.3672V69.0101H82.3772V58.5901Z" fill="#F4F4F4"/>
<path d="M55.3381 72.1201H46.3281V82.5401H55.3381V72.1201Z" fill="#F4F4F4"/>
<path d="M68.8577 72.1201H59.8477V82.5401H68.8577V72.1201Z" fill="#F4F4F4"/>
<path d="M82.3772 72.1201H73.3672V82.5401H82.3772V72.1201Z" fill="#F4F4F4"/>
<path d="M55.3381 85.6401H46.3281V96.0601H55.3381V85.6401Z" fill="#F4F4F4"/>
<path d="M68.8577 85.6401H59.8477V96.0601H68.8577V85.6401Z" fill="#F4F4F4"/>
<path d="M82.3772 85.6401H73.3672V96.0601H82.3772V85.6401Z" fill="#F4F4F4"/>
<path d="M55.3381 99.1602H46.3281V109.58H55.3381V99.1602Z" fill="#F4F4F4"/>
<path d="M68.8577 99.1602H59.8477V109.58H68.8577V99.1602Z" fill="#F4F4F4"/>
<path d="M82.3772 99.1602H73.3672V109.58H82.3772V99.1602Z" fill="#F4F4F4"/>
<path d="M74.7 115.92H54V133.53H74.7V115.92Z" fill="#12465B"/>
<path d="M206.93 71.8301H149.75V133.52H206.93V71.8301Z" fill="#00B3D6"/>
<path d="M168.25 78.8801H156.98V89.9901H168.25V78.8801Z" fill="#F4F4F4"/>
<path d="M184.02 78.8801H172.75V89.9901H184.02V78.8801Z" fill="#F4F4F4"/>
<path d="M199.789 78.8801H188.52V89.9901H199.789V78.8801Z" fill="#F4F4F4"/>
<path d="M168.25 94.9202H156.98V106.03H168.25V94.9202Z" fill="#F4F4F4"/>
<path d="M184.02 94.9202H172.75V106.03H184.02V94.9202Z" fill="#F4F4F4"/>
<path d="M199.789 94.9202H188.52V106.03H199.789V94.9202Z" fill="#F4F4F4"/>
<path d="M168.25 110.69H156.98V121.8H168.25V110.69Z" fill="#F4F4F4"/>
<path d="M199.789 110.69H188.52V121.8H199.789V110.69Z" fill="#F4F4F4"/>
<path d="M186.061 110.92H171.031V133.28H186.061V110.92Z" fill="#12465B"/>
</svg>
