<svg width="192" height="253" viewBox="0 0 192 253" fill="none" xmlns="http://www.w3.org/2000/svg">
<path d="M166.31 75.3001H128.17V65.2801C128.17 58.9801 122.48 53.8701 115.47 53.8701H74.38C67.36 53.8701 61.68 58.9801 61.68 65.2801V97.2801H59.4C55.04 97.2801 51.19 99.2601 48.91 102.26C48.19 102.15 47.46 102.08 46.7 102.08C39.68 102.08 34 107.19 34 113.49V148.07C34 154.37 39.69 159.48 46.7 159.48V172.7C46.7 177.45 49.94 181.53 54.54 183.24V186.21C54.54 192.51 60.23 197.62 67.24 197.62C74.25 197.62 79.94 192.51 79.94 186.21V184.11H97C99.26 187.2 103.13 189.24 107.54 189.27V202.23C107.54 208.53 113.23 213.64 120.24 213.64H129.34V218.92C129.34 225.22 135.03 230.33 142.04 230.33C149.06 230.33 154.74 225.22 154.74 218.92V213.64H161.32C168.34 213.64 174.02 208.53 174.02 202.23V181.89C174.55 180.64 174.85 179.28 174.85 177.86V159.13C177.39 157.04 178.99 154.05 178.99 150.72V86.7201C178.99 80.4201 173.3 75.3101 166.29 75.3101L166.31 75.3001Z" fill="#8B7D6B"/>
<path d="M128.427 30.1399H108.547V44.5299H128.427V30.1399Z" fill="#F3F2E3"/>
<path d="M108.547 30.14H128.427C125.307 27.76 122.187 25.38 119.067 23C115.557 25.38 112.057 27.76 108.547 30.14Z" fill="#6E9BAF"/>
<path d="M138.999 108.67H99.1289L100.149 93.7199L103.469 45.2H133.509L136.199 76.31L138.999 108.67Z" fill="white"/>
<path d="M127.449 80.4299H110.109V108.67H127.449V80.4299Z" fill="#6E9BAF"/>
<path d="M123.107 96.4199H113.867V84.3999H123.107V96.4199ZM114.437 95.8499H122.537V84.9699H114.437V95.8499Z" fill="#0E0904"/>
<path d="M137.036 42.5298H101.156V45.1998H137.036V42.5298Z" fill="#6E9BAF"/>
<path d="M137.036 36.8899H101.156V38.2199H137.036V36.8899Z" fill="#6E9BAF"/>
<path d="M104.595 37.5498H103.465V43.8698H104.595V37.5498Z" fill="#6E9BAF"/>
<path d="M112.497 37.5498H111.367V43.8698H112.497V37.5498Z" fill="#6E9BAF"/>
<path d="M119.626 38.22H118.496V44.54H119.626V38.22Z" fill="#6E9BAF"/>
<path d="M126.025 38.22H124.895V44.54H126.025V38.22Z" fill="#6E9BAF"/>
<path d="M134.775 38.22H133.645V44.54H134.775V38.22Z" fill="#6E9BAF"/>
<g style="mix-blend-mode:multiply" opacity="0.7">
<path d="M138.999 108.67H99.1289L100.149 93.72C109.899 90.26 122.659 84.7601 136.199 76.3101L138.999 108.67Z" fill="#C6BE72"/>
</g>
<path d="M143.748 107.15H93.8281V110.27H143.748V107.15Z" fill="white"/>
<path d="M133.819 67.05L128.829 66.86L127.789 57.5L132.359 57.54L133.829 67.05H133.819ZM129.339 66.3L133.149 66.45L131.859 58.11L128.429 58.08L129.349 66.31L129.339 66.3Z" fill="#0E0904"/>
<path d="M74.4514 90.73L57.6914 119.75H108.101L91.3414 90.73C87.5914 84.23 78.2014 84.23 74.4414 90.73H74.4514Z" fill="#AA8B74"/>
<path d="M75.1517 90.83C76.4417 90.83 76.4417 93.06 77.7317 93.06C79.0217 93.06 79.0217 90.83 80.3117 90.83C81.6017 90.83 81.6017 93.06 82.8917 93.06C84.1817 93.06 84.1817 90.83 85.4717 90.83C86.7617 90.83 86.7617 93.06 88.0517 93.06C89.3417 93.06 89.3417 90.83 90.6317 90.83C91.6317 90.83 91.8617 92.17 92.5117 92.77L91.3317 90.73C87.5817 84.23 78.1917 84.23 74.4317 90.73L73.2617 92.76C73.9017 92.15 74.1317 90.83 75.1317 90.83H75.1517Z" fill="#D8C2B4"/>
<path d="M92.5833 92.8701C91.1333 104.02 84.9533 113.67 76.1133 119.76H108.103L92.5833 92.8701Z" fill="#F1F2F2"/>
<path d="M115.391 166.56L103.801 186.64H138.671L127.081 166.56C124.481 162.06 117.991 162.06 115.391 166.56Z" fill="#AA8B74"/>
<path d="M115.879 166.63C116.769 166.63 116.769 168.17 117.669 168.17C118.569 168.17 118.559 166.63 119.459 166.63C120.359 166.63 120.349 168.17 121.249 168.17C122.149 168.17 122.139 166.63 123.039 166.63C123.939 166.63 123.929 168.17 124.829 168.17C125.729 168.17 125.719 166.63 126.619 166.63C127.309 166.63 127.469 167.56 127.919 167.97L127.109 166.56C124.509 162.06 118.019 162.06 115.419 166.56L114.609 167.96C115.049 167.54 115.209 166.63 115.899 166.63H115.879Z" fill="#D8C2B4"/>
<path d="M127.929 168.04C126.929 175.75 122.649 182.43 116.539 186.64H138.669L127.929 168.04Z" fill="#F1F2F2"/>
<path d="M139.411 107.25L130.281 123.06H157.741L148.611 107.25C146.561 103.71 141.451 103.71 139.411 107.25Z" fill="#AA8B74"/>
<path d="M139.791 107.3C140.491 107.3 140.491 108.52 141.201 108.52C141.911 108.52 141.901 107.3 142.611 107.3C143.321 107.3 143.311 108.52 144.021 108.52C144.731 108.52 144.721 107.3 145.431 107.3C146.141 107.3 146.131 108.52 146.841 108.52C147.551 108.52 147.541 107.3 148.251 107.3C148.801 107.3 148.921 108.03 149.281 108.36L148.641 107.25C146.591 103.71 141.481 103.71 139.441 107.25L138.801 108.35C139.151 108.02 139.281 107.3 139.821 107.3H139.791Z" fill="#D8C2B4"/>
<path d="M149.282 108.41C148.492 114.48 145.122 119.74 140.312 123.06H157.742L149.282 108.41Z" fill="#F1F2F2"/>
</svg>
