<svg width="139" height="142" viewBox="0 0 139 142" fill="none" xmlns="http://www.w3.org/2000/svg">
<path d="M68.4216 124.79C97.1791 124.79 120.492 101.477 120.492 72.7198C120.492 43.9624 97.1791 20.6499 68.4216 20.6499C39.6642 20.6499 16.3516 43.9624 16.3516 72.7198C16.3516 101.477 39.6642 124.79 68.4216 124.79Z" fill="#F2D38B"/>
<path d="M68.4207 112.61C90.8048 112.61 108.951 94.4642 108.951 72.0801C108.951 49.696 90.8048 31.55 68.4207 31.55C46.0366 31.55 27.8906 49.696 27.8906 72.0801C27.8906 94.4642 46.0366 112.61 68.4207 112.61Z" fill="#EEB06B"/>
<mask id="mask0_124_4501" style="mask-type:luminance" maskUnits="userSpaceOnUse" x="27" y="31" width="82" height="82">
<path d="M68.4207 112.61C90.8048 112.61 108.951 94.4642 108.951 72.0801C108.951 49.696 90.8048 31.55 68.4207 31.55C46.0366 31.55 27.8906 49.696 27.8906 72.0801C27.8906 94.4642 46.0366 112.61 68.4207 112.61Z" fill="white"/>
</mask>
<g mask="url(#mask0_124_4501)">
<path d="M54.7624 111.15C55.0824 113.94 55.1425 116.66 55.7825 119.43C56.1225 120.91 58.1924 120.24 58.0024 118.82C57.6424 116.11 56.7624 113.6 56.1024 110.98C55.9224 110.26 54.6724 110.38 54.7624 111.16V111.15Z" fill="#747474"/>
<path d="M60.0907 100.27C57.4807 101.35 54.8807 102.44 52.2707 103.52C52.0707 103.6 51.8907 103.72 51.7507 103.86C51.1407 104.28 50.7607 105.11 51.0907 106.22C51.9807 109.25 54.0306 115.71 57.3306 112.36C59.4206 110.24 59.7807 106.24 61.7607 103.94C63.0207 102.48 61.7107 99.6102 60.1007 100.28L60.0907 100.27Z" fill="#D2282A"/>
<path d="M63.2703 106.5C63.5903 109.29 63.6503 112.01 64.2903 114.77C64.6303 116.25 66.7002 115.58 66.5102 114.16C66.1502 111.45 65.2702 108.95 64.6102 106.32C64.4302 105.6 63.1803 105.72 63.2703 106.5Z" fill="#747474"/>
<path d="M68.1685 96.4001C68.0885 96.3601 68.0085 96.3201 67.9185 96.3001C66.0985 95.7701 62.4385 98.1901 60.7885 98.8801C60.5885 98.9601 60.4085 99.0801 60.2585 99.2201C59.6485 99.6401 59.2685 100.47 59.5985 101.57C60.4885 104.6 62.5385 111.06 65.8385 107.71C67.2185 106.31 68.1385 103.93 68.9085 102.17C69.4685 100.88 69.7385 97.2201 68.1785 96.4001H68.1685Z" fill="#D2282A"/>
<mask id="mask1_124_4501" style="mask-type:luminance" maskUnits="userSpaceOnUse" x="27" y="90" width="24" height="61">
<path d="M45.5086 91.0001C44.8686 89.8101 42.8887 90.3 43.1687 91.72C43.2387 92.1 43.3287 92.4701 43.4087 92.8401C41.1987 99.4301 38.3086 105.77 35.9486 112.31C33.1886 119.99 30.4287 127.88 28.6787 135.86C28.2387 137.84 25.3787 152.26 31.4087 149.78C34.3487 148.57 35.7687 144.01 36.7687 141.35C37.6887 138.93 38.3886 136.45 38.9886 133.95C39.7386 135.53 40.9186 136.42 42.8286 134.78C45.9286 132.1 46.2687 127.35 46.4287 123.19C46.9287 123.33 47.5686 123.12 47.8286 122.7C50.7586 118.01 50.8687 112.6 50.1787 107.27C49.4787 101.87 48.0886 95.8301 45.5086 91.0001Z" fill="white"/>
</mask>
<g mask="url(#mask1_124_4501)">
<path d="M45.5086 91.0001C44.8686 89.8101 42.8887 90.3 43.1687 91.72C43.2387 92.1 43.3287 92.4701 43.4087 92.8401C41.1987 99.4301 38.3086 105.77 35.9486 112.31C33.1886 119.99 30.4287 127.88 28.6787 135.86C28.2387 137.84 25.3787 152.26 31.4087 149.78C34.3487 148.57 35.7687 144.01 36.7687 141.35C37.6887 138.93 38.3886 136.45 38.9886 133.95C39.7386 135.53 40.9186 136.42 42.8286 134.78C45.9286 132.1 46.2687 127.35 46.4287 123.19C46.9287 123.33 47.5686 123.12 47.8286 122.7C50.7586 118.01 50.8687 112.6 50.1787 107.27C49.4787 101.87 48.0886 95.8301 45.5086 91.0001Z" fill="#D2282A"/>
<path d="M45.9888 92.1701C45.8988 92.5901 45.8588 93.0101 45.8188 93.4301C43.5288 97.0101 41.7388 100.79 40.2788 104.82C38.6388 109.38 37.0388 114.36 36.5188 119.2C36.2988 121.28 37.2589 123.91 39.6689 122.36C41.1389 121.41 41.9888 119.42 42.7588 117.93C43.4488 116.6 43.9789 115.2 44.2989 113.75C44.3989 113.77 44.5088 113.78 44.6188 113.78C46.3788 113.78 47.6688 111.8 48.4488 110.46C49.8188 108.09 49.7388 105.31 49.4588 102.67C49.0888 99.1301 48.2888 95.6801 47.9788 92.1201C47.8788 90.9101 46.1988 91.1501 45.9888 92.1801V92.1701Z" fill="#089AE5"/>
<path d="M44.3398 112.41C43.7198 117.5 43.1399 122.57 42.7699 127.68C42.4299 132.33 41.7899 137.37 42.6599 141.98C42.7399 142.39 43.4098 142.39 43.4898 141.98C44.3998 137.34 44.1699 132.39 44.5099 127.68C44.8699 122.59 45.2999 117.5 45.6699 112.41C45.7299 111.55 44.4498 111.58 44.3398 112.41Z" fill="#089AE5"/>
</g>
<mask id="mask2_124_4501" style="mask-type:luminance" maskUnits="userSpaceOnUse" x="82" y="54" width="14" height="15">
<path d="M84.8479 54.77C84.8479 54.77 98.2379 56.9 95.4379 68.26C95.4379 68.26 93.4579 65.97 90.8479 65.45C88.2379 64.93 82.668 64.36 82.668 64.36L84.8479 54.77Z" fill="white"/>
</mask>
<g mask="url(#mask2_124_4501)">
<path d="M84.8479 54.77C84.8479 54.77 98.2379 56.9 95.4379 68.26C95.4379 68.26 93.4579 65.97 90.8479 65.45C88.2379 64.93 82.668 64.36 82.668 64.36L84.8479 54.77Z" fill="#353535"/>
<path d="M87.7375 58.2599C91.5675 59.1299 94.9075 62.2799 95.8975 66.1099C96.0175 66.5899 96.1075 67.0799 96.1275 67.5699C96.1475 68.0599 96.0075 68.58 96.2475 69.03C96.3375 69.2 96.5774 69.21 96.7074 69.09C97.0674 68.74 97.0375 68.2099 97.0175 67.7399C96.9975 67.2699 96.9374 66.7799 96.8374 66.3099C96.6274 65.3099 96.2274 64.3399 95.7274 63.4499C94.6674 61.5699 93.0874 59.9199 91.1874 58.8699C90.1474 58.2999 88.9975 57.87 87.7975 57.78C87.5275 57.76 87.4675 58.1999 87.7375 58.2599Z" fill="white"/>
</g>
<path d="M89.8592 60.2601C89.8592 53.1601 84.0992 47.4001 76.9992 47.4001C69.8992 47.4001 64.8591 54.5601 61.1991 59.8601C57.1691 65.6901 53.1092 71.5401 49.8092 77.8301C47.1192 82.9801 42.4691 91.2601 43.6991 97.2201C44.6091 101.65 48.8292 105.47 53.7992 106.06C58.9992 106.68 63.6492 103.61 67.1692 100.5C75.2992 93.3201 80.9291 83.0301 80.9691 72.7001C80.9691 72.6301 80.9691 72.5601 80.9691 72.4901C86.1291 70.8201 89.8592 65.9701 89.8592 60.2601Z" fill="#FF2E06"/>
<mask id="mask3_124_4501" style="mask-type:luminance" maskUnits="userSpaceOnUse" x="73" y="52" width="17" height="21">
<path d="M88.0003 53.47C82.0703 51.73 76.2103 53.47 74.2503 57.85C72.5303 61.69 74.8403 67.59 77.7003 70.38C78.6703 71.32 79.8803 71.98 81.2003 72.45C86.2803 70.73 89.9403 65.93 89.9403 60.27C89.9403 57.78 89.2303 55.45 88.0003 53.48V53.47Z" fill="white"/>
</mask>
<g mask="url(#mask3_124_4501)">
<path d="M88.0003 53.47C82.0703 51.73 76.2103 53.47 74.2503 57.85C72.5303 61.69 74.8403 67.59 77.7003 70.38C78.6703 71.32 79.8803 71.98 81.2003 72.45C86.2803 70.73 89.9403 65.93 89.9403 60.27C89.9403 57.78 89.2303 55.45 88.0003 53.48V53.47Z" fill="#FFEAE0"/>
<path d="M78.2003 53.45C77.0403 55.69 77.8303 58.25 79.2303 60.19C80.0003 61.24 80.9404 62.14 82.0204 62.88C82.5104 63.21 83.0303 63.5 83.5703 63.73C84.0903 63.95 84.6703 64.18 85.2303 64.02C85.4403 63.96 85.5703 63.63 85.3703 63.48C84.9803 63.18 84.5104 63.06 84.0604 62.87C83.5604 62.66 83.0803 62.39 82.6203 62.1C81.6603 61.48 80.8103 60.68 80.0803 59.79C78.6903 58.1 77.7303 55.78 78.5803 53.63C78.6703 53.4 78.3004 53.25 78.1804 53.46L78.2003 53.45Z" fill="#D2282A"/>
<path d="M77.0493 53.5899C75.1193 57.1399 76.6693 62.2799 80.0393 64.4099C80.6293 64.7799 81.1692 63.8499 80.5792 63.4799C77.5092 61.5399 76.3692 57.0999 77.3692 53.7299C77.4292 53.5299 77.1393 53.4099 77.0393 53.5899H77.0493Z" fill="#D2282A"/>
<path d="M76.3394 53.45C74.4194 55.89 74.1794 59.02 75.1194 61.93C75.5894 63.4 76.3094 64.78 77.2894 65.97C78.1794 67.06 79.3594 68.13 80.7994 68.3C80.9994 68.32 81.1294 68.01 80.9694 67.88C79.9694 67.09 78.9194 66.3901 78.0894 65.4001C77.1794 64.3101 76.4794 63.02 76.0294 61.67C75.1894 59.15 74.9394 55.91 76.5894 53.64C76.6994 53.49 76.4494 53.3 76.3294 53.44L76.3394 53.45Z" fill="#D2282A"/>
</g>
<path d="M55.5198 83.1201C53.8298 84.0501 51.1198 84.4901 49.1398 85.0901C46.9098 85.7601 44.6898 86.5 42.4298 87.1C42.1898 87.16 42.0397 87.3 41.9597 87.47C37.5697 93.44 33.2798 99.5301 29.7698 106.08C28.2698 108.87 27.0597 111.82 26.7097 114.98C26.4797 117.07 27.5698 119.42 30.0298 118.86C32.1198 118.39 33.8097 116.55 35.1897 115.02C37.8897 112.03 40.3298 108.77 42.7698 105.56C45.3298 102.18 47.7998 98.7301 50.2898 95.3001C52.7298 91.9401 55.4498 88.6201 57.2598 84.8701C57.8098 83.7401 56.6798 82.4701 55.5098 83.1201H55.5198Z" fill="#1F75D2"/>
<path d="M62.6095 72.9301C60.9195 73.8601 58.2095 74.3001 56.2295 74.8901C53.9995 75.5601 51.7695 76.3002 49.5195 76.9002C49.2795 76.9602 49.1296 77.1002 49.0496 77.2702C44.6596 83.2402 40.3695 89.3301 36.8595 95.8801C35.3595 98.6701 34.1496 101.62 33.7996 104.78C33.5696 106.87 34.6595 109.22 37.1195 108.66C39.2095 108.19 40.8995 106.34 42.2795 104.82C44.9795 101.83 47.4195 98.5701 49.8595 95.3601C52.4195 91.9801 54.8895 88.5401 57.3795 85.1001C59.8195 81.7401 62.5395 78.4201 64.3495 74.6701C64.8995 73.5401 63.7695 72.2701 62.5995 72.9201L62.6095 72.9301Z" fill="#089AE5"/>
<path d="M47.959 74.42C39.859 83.62 37.239 94.55 42.109 98.83C46.969 103.11 57.479 99.12 65.579 89.92C73.679 80.72 76.2991 69.79 71.4291 65.51C66.5691 61.23 56.059 65.22 47.959 74.42Z" fill="#3C8D3F"/>
<mask id="mask4_124_4501" style="mask-type:luminance" maskUnits="userSpaceOnUse" x="39" y="63" width="35" height="38">
<path d="M47.959 74.42C39.859 83.62 37.239 94.55 42.109 98.83C46.969 103.11 57.479 99.12 65.579 89.92C73.679 80.72 76.2991 69.79 71.4291 65.51C66.5691 61.23 56.059 65.22 47.959 74.42Z" fill="white"/>
</mask>
<g mask="url(#mask4_124_4501)">
<path d="M52.17 68.7101C44.07 77.9101 41.4499 88.8401 46.3199 93.1201C51.1799 97.4001 61.69 93.4101 69.79 84.2101C77.89 75.0101 80.51 64.0801 75.64 59.8001C70.78 55.5201 60.27 59.5101 52.17 68.7101Z" fill="#449F49"/>
<path d="M55.5489 64.5999C47.4489 73.7999 44.8289 84.73 49.6989 89.01C54.5589 93.29 65.0689 89.2999 73.1689 80.0999C81.2689 70.8999 83.8889 59.97 79.0189 55.69C74.1589 51.41 63.6489 55.3999 55.5489 64.5999Z" fill="#D2282A"/>
</g>
<path d="M82.9492 60.3201C82.9492 60.3201 82.9692 60.1701 82.9492 60.2901C82.9492 60.2501 82.9592 60.2101 82.9692 60.1701C82.9792 60.0901 82.9992 60.0101 83.0192 59.9301C83.0592 59.7601 83.1193 59.5901 83.1693 59.4201C83.2193 59.2601 83.2792 59.1001 83.3392 58.9501C83.3892 58.8101 83.2792 59.0701 83.3392 58.9501C83.3592 58.9101 83.3692 58.8702 83.3892 58.8402C83.4292 58.7502 83.4692 58.6701 83.5192 58.5801C83.6692 58.2901 83.8392 57.9701 84.0692 57.7201C83.9092 57.8901 84.0992 57.6902 84.1292 57.6502C84.1792 57.5902 84.2292 57.5401 84.2792 57.4801C84.3892 57.3601 84.4892 57.2501 84.6092 57.1401C84.6492 57.1001 84.6992 57.0601 84.7392 57.0201C84.7692 57.0001 84.7892 56.9801 84.8192 56.9501C84.9192 56.8601 84.6692 57.0601 84.7792 56.9801C84.8892 56.9001 84.9992 56.8301 85.1192 56.7601C85.1492 56.7501 85.1692 56.7301 85.1992 56.7201C85.2892 56.6801 85.2892 56.7201 85.1292 56.7501C85.1792 56.7501 85.2393 56.7101 85.2893 56.6901C85.3393 56.6701 85.3892 56.6702 85.4392 56.6502C85.5292 56.6302 85.5192 56.6901 85.3392 56.6601C85.3692 56.6601 85.4092 56.6601 85.4392 56.6601C85.4592 56.6601 85.4892 56.6601 85.5092 56.6601C85.5992 56.6601 85.5992 56.7201 85.3992 56.6401C85.4392 56.6601 85.4993 56.6601 85.5393 56.6701C85.6893 56.7001 85.3392 56.5501 85.5092 56.6601C85.5292 56.6701 85.5492 56.6901 85.5692 56.7001C85.7092 56.7701 85.4392 56.5702 85.5092 56.6502C85.5492 56.6902 85.5892 56.7301 85.6292 56.7601C85.7492 56.8801 85.5092 56.5801 85.6292 56.7601C85.6692 56.8101 85.6992 56.8701 85.7292 56.9301C85.7392 56.9601 85.7592 57.0001 85.7692 57.0201C85.6392 56.8401 85.7192 56.9001 85.7592 57.0001C85.8092 57.1401 85.8492 57.2901 85.8892 57.4401C85.9092 57.5301 85.9292 57.6301 85.9492 57.7201C85.9492 57.7701 85.9692 57.8201 85.9792 57.8701C85.9792 57.9001 85.9892 57.9401 85.9992 57.9701C86.0092 58.0601 86.0092 58.0401 85.9992 57.9201C86.0192 57.9601 86.0092 58.0502 86.0192 58.0902C86.0292 58.2002 86.0492 58.3101 86.0692 58.4201C86.0992 58.5901 86.1292 58.7402 86.2092 58.9002C86.4792 59.4402 87.1592 59.4801 87.4592 58.9501C87.7592 58.4201 87.6092 57.6901 87.5092 57.1401C87.4392 56.7601 87.2992 56.3801 87.0992 56.0601C86.7392 55.4901 86.1492 55.0801 85.4492 55.1201C84.7492 55.1601 84.1992 55.5102 83.7192 55.9602C83.1292 56.5102 82.7293 57.2101 82.4293 57.9501C82.1293 58.6901 81.9593 59.5001 82.0393 60.3101C82.0993 60.9101 82.9092 60.9101 82.9692 60.3101L82.9492 60.3201Z" fill="#353535"/>
<path d="M86.5305 66.1803C87.7605 67.4803 89.3805 68.2503 91.2105 68.0903C93.0405 67.9303 95.6905 66.6703 95.2105 64.4303C95.1005 63.9103 94.6205 63.4703 94.1205 63.3403C92.7305 62.9703 92.0905 64.0003 90.8805 64.3403C89.9905 64.5903 88.9505 64.5802 88.1005 64.1602C86.8105 63.5202 85.5006 65.0903 86.5406 66.1903L86.5305 66.1803Z" fill="#353535"/>
</g>
</svg>
